<svg xmlns="http://www.w3.org/2000/svg" viewBox="0 0 720 540" role="img" aria-labelledby="title">
  <title id="title">Gaming desk placeholder</title>
  <rect width="720" height="540" fill="#202636"/>
  <rect x="52" y="62" width="422" height="236" rx="12" fill="#111827"/>
  <rect x="74" y="84" width="378" height="192" fill="#273985"/>
  <rect y="338" width="720" height="202" fill="#3f2a1d"/>
  <rect x="468" y="218" width="142" height="206" rx="14" fill="#38bdf8" opacity=".82"/>
  <path d="M484 232c32 26 70 26 108 0v60c-44-8-70 10-100 32z" fill="#6b3a1d"/>
  <path d="M536 302c32 44 28 84 0 120-18-40-48-66-28-106 6-12 14-18 28-14z" fill="#e6fbff"/>
  <rect x="98" y="382" width="300" height="56" rx="8" fill="#15161a"/>
  <g fill="#38bdf8">
    <rect x="118" y="396" width="22" height="14" rx="3"/>
    <rect x="150" y="396" width="22" height="14" rx="3"/>
    <rect x="182" y="396" width="22" height="14" rx="3"/>
    <rect x="214" y="396" width="22" height="14" rx="3"/>
  </g>
</svg>
